<svg xmlns="http://www.w3.org/2000/svg" xmlns:xlink="http://www.w3.org/1999/xlink" width="300" zoomAndPan="magnify" viewBox="0 0 224.87999 225" height="300" preserveAspectRatio="xMidYMid meet" version="1.0"><defs><g/><clipPath id="56fa8dfa04"><path d="M 173 89 L 224.761719 89 L 224.761719 153 L 173 153 Z M 173 89 " clip-rule="nonzero"/></clipPath></defs><g fill="#ff74b1" fill-opacity="1"><g transform="translate(8.728744, 142.48543)"><g><path d="M 0.84375 -38.421875 L 9.390625 -38.421875 L 14.84375 -13.90625 L 15.5 -10.0625 L 15.609375 -10.0625 L 16.234375 -13.90625 L 20.96875 -38.421875 L 29.453125 -38.421875 L 34.53125 -14.03125 L 35.203125 -10.0625 L 35.3125 -10.0625 L 36 -14.03125 L 41.5625 -38.421875 L 49.71875 -38.421875 L 38.890625 0 L 31.1875 0 L 25.75 -26.96875 L 25.25 -30.234375 L 25.140625 -30.234375 L 24.640625 -26.96875 L 19.1875 0 L 11.703125 0 Z M 0.84375 -38.421875 "/></g></g></g><path stroke-linecap="butt" transform="matrix(0.854394, 0, 0, 0.854394, 6.362543, 83.729232)" fill="none" stroke-linejoin="miter" d="M 0.979262 21.023295 L 10.982699 21.023295 L 17.378863 49.721454 L 18.14238 54.220257 L 18.265823 54.220257 L 19.001907 49.721454 L 24.538544 21.023295 L 34.482546 21.023295 L 40.416943 49.570579 L 41.212463 54.220257 L 41.335906 54.220257 L 42.131426 49.570579 L 48.646461 21.023295 L 58.192703 21.023295 L 45.528388 66.002185 L 36.498778 66.002185 L 30.134617 34.423694 L 29.553979 30.60154 L 29.435108 30.60154 L 28.849898 34.423694 L 22.458305 66.002185 L 13.707584 66.002185 Z M 0.979262 21.023295 " stroke="#343333" stroke-width="2.349956" stroke-opacity="1" stroke-miterlimit="4"/><g fill="#a7eaff" fill-opacity="1"><g transform="translate(144.636114, 142.48543)"><g><path d="M 11.9375 0 L 3.921875 0 L 3.921875 -38.421875 L 11.9375 -38.421875 L 11.9375 -22.796875 L 26.640625 -38.421875 L 37.015625 -38.421875 L 21.328125 -22.6875 L 37.921875 0 L 27.578125 0 L 15.703125 -16.859375 L 11.9375 -13.015625 Z M 11.9375 0 "/></g></g></g><path stroke-linecap="butt" transform="matrix(0.854394, 0, 0, 0.854394, 142.269911, 83.729232)" fill="none" stroke-linejoin="miter" d="M 13.980593 66.002185 L 4.589798 66.002185 L 4.589798 21.023295 L 13.980593 21.023295 L 13.980593 39.320257 L 31.175715 21.023295 L 43.323398 21.023295 L 24.967 39.4437 L 44.393236 66.002185 L 32.277556 66.002185 L 18.387957 46.265056 L 13.980593 50.76386 Z M 13.980593 66.002185 " stroke="#343333" stroke-width="2.349956" stroke-opacity="1" stroke-miterlimit="4"/><g fill="#ffb4d5" fill-opacity="1"><g transform="translate(185.432957, 142.48543)"><g><path d="M 9.9375 -11.84375 C 9.9375 -9.9375 10.632812 -8.421875 12.03125 -7.296875 C 13.4375 -6.179688 15.445312 -5.625 18.0625 -5.625 C 20.675781 -5.625 22.664062 -6.046875 24.03125 -6.890625 C 25.40625 -7.734375 26.09375 -8.972656 26.09375 -10.609375 C 26.09375 -11.585938 25.738281 -12.429688 25.03125 -13.140625 C 24.320312 -13.859375 22.644531 -14.53125 20 -15.15625 L 13.46875 -16.671875 C 9.332031 -17.648438 6.519531 -18.976562 5.03125 -20.65625 C 3.539062 -22.34375 2.796875 -24.664062 2.796875 -27.625 C 2.796875 -31.09375 4.023438 -33.925781 6.484375 -36.125 C 8.953125 -38.332031 12.65625 -39.4375 17.59375 -39.4375 C 22.488281 -39.4375 26.203125 -38.195312 28.734375 -35.71875 C 31.273438 -33.25 32.550781 -30.351562 32.5625 -27.03125 L 24.859375 -27.03125 C 24.679688 -28.90625 23.945312 -30.332031 22.65625 -31.3125 C 21.375 -32.300781 19.484375 -32.796875 16.984375 -32.796875 C 14.984375 -32.796875 13.367188 -32.382812 12.140625 -31.5625 C 10.910156 -30.738281 10.296875 -29.617188 10.296875 -28.203125 C 10.296875 -27.222656 10.566406 -26.410156 11.109375 -25.765625 C 11.648438 -25.128906 12.519531 -24.660156 13.71875 -24.359375 L 24 -21.828125 C 27.707031 -20.921875 30.265625 -19.617188 31.671875 -17.921875 C 33.085938 -16.222656 33.796875 -14.097656 33.796875 -11.546875 C 33.796875 -7.367188 32.34375 -4.226562 29.4375 -2.125 C 26.539062 -0.03125 22.945312 1.015625 18.65625 1.015625 C 13.113281 1.015625 8.988281 -0.160156 6.28125 -2.515625 C 3.570312 -4.878906 2.21875 -7.988281 2.21875 -11.84375 Z M 9.9375 -11.84375 "/></g></g></g><g clip-path="url(#56fa8dfa04)"><path stroke-linecap="butt" transform="matrix(0.854394, 0, 0, 0.854394, 183.066754, 83.729232)" fill="none" stroke-linejoin="miter" d="M 11.626074 52.140018 C 11.626074 54.361988 12.449025 56.131334 14.090357 57.448057 C 15.731689 58.76478 18.081674 59.423142 21.140311 59.423142 C 24.198949 59.423142 26.530646 58.929371 28.13083 57.937256 C 29.735586 56.949714 30.535678 55.495833 30.535678 53.580184 C 30.535678 52.437195 30.11963 51.445081 29.296678 50.608413 C 28.469155 49.776317 26.507786 48.989941 23.403429 48.253857 L 15.754549 46.479938 C 10.921993 45.336949 7.634757 43.782485 5.88827 41.811972 C 4.146356 39.846032 3.273112 37.125719 3.273112 33.660177 C 3.273112 29.600282 4.71785 26.281042 7.602753 23.70246 C 10.487657 21.119306 14.817298 19.830014 20.591677 19.830014 C 26.320336 19.830014 30.672837 21.279324 33.640035 24.177943 C 36.607234 27.071991 38.102263 30.468953 38.120551 34.364258 L 29.095512 34.364258 C 28.894346 32.160576 28.034819 30.482669 26.526074 29.330536 C 25.017329 28.178404 22.804503 27.602337 19.887596 27.602337 C 17.542183 27.602337 15.649394 28.086965 14.2138 29.056219 C 12.773634 30.025473 12.055837 31.333052 12.055837 32.9881 C 12.055837 34.131089 12.371302 35.077483 13.002232 35.831856 C 13.637734 36.586228 14.657279 37.139435 16.06087 37.486903 L 28.08511 40.454102 C 32.433039 41.514795 35.427669 43.037256 37.082717 45.026057 C 38.733193 47.014857 39.560717 49.497428 39.560717 52.478343 C 39.560717 57.370334 37.859949 61.050758 34.467559 63.505897 C 31.070597 65.965609 26.864398 67.195465 21.844392 67.195465 C 15.356789 67.195465 10.528804 65.810162 7.36044 63.048702 C 4.187503 60.282669 2.601035 56.647965 2.601035 52.140018 Z M 11.626074 52.140018 " stroke="#343333" stroke-width="2.349956" stroke-opacity="1" stroke-miterlimit="4"/></g><g fill="#ffeb76" fill-opacity="1"><g transform="translate(104.546792, 142.48543)"><g><path d="M 21.203125 -21.515625 C 23.304688 -21.515625 24.867188 -21.914062 25.890625 -22.71875 C 26.910156 -23.519531 27.421875 -24.867188 27.421875 -26.765625 C 27.421875 -28.335938 26.941406 -29.570312 25.984375 -30.46875 C 25.035156 -31.363281 23.640625 -31.8125 21.796875 -31.8125 L 11.78125 -31.8125 L 11.78125 -21.515625 Z M 3.921875 -38.421875 L 23.34375 -38.421875 C 27.300781 -38.421875 30.304688 -37.363281 32.359375 -35.25 C 34.410156 -33.132812 35.4375 -30.578125 35.4375 -27.578125 C 35.4375 -23.117188 33.460938 -20.066406 29.515625 -18.421875 C 31.335938 -17.722656 32.601562 -16.71875 33.3125 -15.40625 C 34.019531 -14.09375 34.375 -11.71875 34.375 -8.28125 C 34.375 -4.863281 34.5 -2.851562 34.75 -2.25 C 35 -1.65625 35.441406 -1.242188 36.078125 -1.015625 L 36.078125 0 L 27.203125 0 C 26.628906 -1.726562 26.34375 -4.21875 26.34375 -7.46875 C 26.34375 -10.207031 26.160156 -11.972656 25.796875 -12.765625 C 25.429688 -13.554688 24.828125 -14.128906 23.984375 -14.484375 C 23.140625 -14.847656 21.835938 -15.03125 20.078125 -15.03125 L 11.78125 -15.03125 L 11.78125 0 L 3.921875 0 Z M 3.921875 -38.421875 "/></g></g></g><path stroke-linecap="butt" transform="matrix(0.854394, 0, 0, 0.854394, 102.180589, 83.729232)" fill="none" stroke-linejoin="miter" d="M 24.810943 40.819858 C 27.279798 40.819858 29.113152 40.348947 30.306432 39.411696 C 31.499712 38.474446 32.094067 36.892549 32.094067 34.670579 C 32.094067 32.832653 31.54086 31.392488 30.425303 30.340938 C 29.314318 29.289389 27.677558 28.763614 25.515024 28.763614 L 13.797104 28.763614 L 13.797104 40.819858 Z M 4.589187 21.023295 L 27.320946 21.023295 C 31.952336 21.023295 35.472741 22.262294 37.877589 24.740294 C 40.282437 27.218293 41.489433 30.212923 41.489433 33.719613 C 41.489433 38.945357 39.171452 42.511481 34.544634 44.431702 C 36.684309 45.24551 38.170194 46.425075 38.993146 47.965823 C 39.82067 49.502 40.232146 52.281749 40.232146 56.300497 C 40.232146 60.300957 40.38302 62.650942 40.675625 63.355023 C 40.972803 64.059104 41.489433 64.543731 42.220946 64.808904 L 42.220946 66.002185 L 31.851753 66.002185 C 31.175104 63.981381 30.841351 61.064473 30.841351 57.251463 C 30.841351 54.046523 30.626469 51.98 30.196705 51.051893 C 29.771514 50.123786 29.062861 49.451709 28.070746 49.035661 C 27.083204 48.615041 25.556171 48.409303 23.498792 48.409303 L 13.797104 48.409303 L 13.797104 66.002185 L 4.589187 66.002185 Z M 4.589187 21.023295 " stroke="#343333" stroke-width="2.349956" stroke-opacity="1" stroke-miterlimit="4"/><g fill="#66dbff" fill-opacity="1"><g transform="translate(59.810375, 142.48543)"><g><path d="M 10.25 -19.21875 C 10.25 -14.75 11.238281 -11.390625 13.21875 -9.140625 C 15.207031 -6.898438 17.726562 -5.78125 20.78125 -5.78125 C 23.832031 -5.78125 26.316406 -6.9375 28.234375 -9.25 C 30.160156 -11.570312 31.125 -14.894531 31.125 -19.21875 C 31.125 -23.53125 30.171875 -26.84375 28.265625 -29.15625 C 26.359375 -31.476562 23.828125 -32.640625 20.671875 -32.640625 C 17.515625 -32.640625 14.988281 -31.484375 13.09375 -29.171875 C 11.195312 -26.867188 10.25 -23.550781 10.25 -19.21875 Z M 2.21875 -19.21875 C 2.21875 -25.800781 3.929688 -30.816406 7.359375 -34.265625 C 10.796875 -37.710938 15.21875 -39.4375 20.625 -39.4375 C 26.019531 -39.4375 30.457031 -37.734375 33.9375 -34.328125 C 37.414062 -30.921875 39.15625 -25.882812 39.15625 -19.21875 C 39.15625 -12.695312 37.445312 -7.691406 34.03125 -4.203125 C 30.613281 -0.722656 26.171875 1.015625 20.703125 1.015625 C 15.492188 1.015625 11.109375 -0.632812 7.546875 -3.9375 C 3.992188 -7.238281 2.21875 -12.332031 2.21875 -19.21875 Z M 2.21875 -19.21875 "/></g></g></g><path stroke-linecap="butt" transform="matrix(0.854394, 0, 0, 0.854394, 57.444175, 83.729232)" fill="none" stroke-linejoin="miter" d="M 11.993569 43.51274 C 11.993569 48.733912 13.154845 52.661221 15.48197 55.290095 C 17.804523 57.923541 20.753434 59.240264 24.324131 59.240264 C 27.894827 59.240264 30.80259 57.882393 33.056564 55.171224 C 35.310538 52.455483 36.43981 48.569321 36.43981 43.51274 C 36.43981 38.451586 35.324254 34.569996 33.088568 31.854255 C 30.857454 29.143086 27.894827 27.785216 24.200688 27.785216 C 20.51112 27.785216 17.553066 29.138514 15.326524 31.840539 C 13.104554 34.542565 11.993569 38.433298 11.993569 43.51274 Z M 2.602774 43.51274 C 2.602774 35.799852 4.609862 29.929462 8.62861 25.887854 C 12.647358 21.850818 17.818239 19.830014 24.141252 19.830014 C 30.464266 19.830014 35.658006 21.823387 39.727046 25.814703 C 43.796085 29.801448 45.830605 35.699269 45.830605 43.51274 C 45.830605 51.13876 43.832661 56.995434 39.836773 61.073617 C 35.836312 65.151801 30.638 67.195465 24.232692 67.195465 C 18.133704 67.195465 13.003971 65.261528 8.843492 61.393654 C 4.683013 57.530353 2.602774 51.568524 2.602774 43.51274 Z M 2.602774 43.51274 " stroke="#343333" stroke-width="2.349956" stroke-opacity="1" stroke-miterlimit="4"/><g fill="#343333" fill-opacity="1"><g transform="translate(68.677033, 97.428579)"><g><path d="M 31.910156 -23.148438 C 29.839844 -23.347656 27.230469 -23.550781 24.417969 -23.480469 C 25.691406 -27.230469 25.890625 -31.242188 24.417969 -34.855469 C 21.609375 -41.8125 14.917969 -41.410156 9.300781 -38.667969 C 9.566406 -40.675781 6.554688 -41.410156 6.089844 -39.40625 C 2.945312 -25.691406 -1.671875 -12.375 -4.816406 1.339844 C -5.285156 3.480469 -2.007812 4.414062 -1.539062 2.273438 C 1.269531 -10.035156 5.285156 -22.078125 8.296875 -34.320312 C 8.363281 -34.386719 8.429688 -34.386719 8.429688 -34.453125 C 12.777344 -37.195312 19.132812 -39.539062 21.410156 -33.25 C 22.546875 -30.105469 22.011719 -26.492188 20.671875 -23.28125 C 14.71875 -22.746094 8.628906 -21.007812 6.089844 -16.589844 C 4.617188 -14.050781 4.949219 -10.703125 8.230469 -10.035156 C 11.507812 -9.367188 15.320312 -11.773438 17.660156 -13.714844 C 19.667969 -15.320312 21.410156 -17.460938 22.746094 -19.871094 C 25.824219 -20.136719 28.96875 -20.070312 31.910156 -19.734375 C 34.121094 -19.535156 34.121094 -22.945312 31.910156 -23.148438 Z M 17.929688 -18.730469 C 16.457031 -16.859375 14.050781 -14.519531 11.574219 -13.914062 C 9.835938 -13.515625 8.363281 -13.648438 9.769531 -15.789062 C 10.570312 -16.925781 12.910156 -17.730469 14.117188 -18.128906 C 15.519531 -18.597656 16.925781 -19 18.398438 -19.269531 C 18.265625 -19.066406 18.0625 -18.867188 17.929688 -18.730469 Z M 17.929688 -18.730469 "/></g></g></g><g fill="#343333" fill-opacity="1"><g transform="translate(99.310119, 97.428579)"><g><path d="M 24.621094 -18.597656 C 23.28125 -17.125 21.007812 -16.992188 18.730469 -17.527344 C 19.871094 -20.941406 19.132812 -24.285156 16.324219 -26.828125 C 15.855469 -27.296875 15.320312 -27.628906 14.851562 -27.832031 C 7.089844 -32.914062 -1.070312 -21.074219 0.335938 -13.78125 C 1.136719 -9.300781 4.949219 -6.355469 9.566406 -7.761719 C 12.578125 -8.628906 15.320312 -11.304688 17.125 -14.117188 C 20.671875 -13.113281 24.621094 -13.582031 27.027344 -16.191406 C 28.5 -17.796875 26.089844 -20.203125 24.621094 -18.597656 Z M 12.578125 -24.019531 C 14.851562 -26.292969 16.054688 -20.671875 15.921875 -19.734375 C 15.855469 -19.402344 15.789062 -19.066406 15.65625 -18.730469 C 12.910156 -20.203125 11.039062 -22.410156 12.578125 -24.019531 Z M 13.78125 -15.253906 C 12.777344 -13.914062 11.304688 -12.175781 9.769531 -11.507812 C 5.152344 -9.367188 3.011719 -14.050781 3.679688 -17.660156 C 4.214844 -20.40625 6.625 -24.417969 9.566406 -25.554688 C 9.566406 -25.554688 9.566406 -25.488281 9.566406 -25.488281 C 7.960938 -21.207031 10.304688 -17.527344 13.914062 -15.453125 C 13.847656 -15.386719 13.847656 -15.320312 13.78125 -15.253906 Z M 13.78125 -15.253906 "/></g></g></g><g fill="#343333" fill-opacity="1"><g transform="translate(124.124266, 97.428579)"><g><path d="M 1.605469 -25.019531 C 0.402344 -20.671875 -1.003906 -15.121094 1.136719 -10.839844 C 6.019531 -1.070312 16.054688 -11.105469 19.535156 -16.523438 C 20.671875 -18.398438 17.929688 -19.804688 16.660156 -18.195312 C 14.71875 -15.65625 12.578125 -12.511719 9.632812 -10.972656 C 3.746094 -7.828125 3.210938 -15.320312 3.746094 -19.066406 C 5.21875 -28.566406 9.632812 -37.734375 12.84375 -46.695312 C 13.582031 -48.769531 10.304688 -49.640625 9.566406 -47.632812 C 6.890625 -40.140625 3.746094 -32.714844 1.605469 -25.019531 Z M 1.605469 -25.019531 "/></g></g></g><g fill="#343333" fill-opacity="1"><g transform="translate(140.109656, 97.428579)"><g><path d="M 19.335938 -20.472656 C 17.058594 -17.660156 14.652344 -14.519531 11.375 -12.710938 C 9.097656 -11.441406 6.355469 -11.238281 4.617188 -13.648438 C 3.8125 -14.71875 3.679688 -15.921875 3.878906 -17.195312 C 8.5625 -17.527344 15.988281 -20.671875 14.71875 -26.695312 C 13.515625 -32.515625 6.355469 -28.769531 4.148438 -25.890625 C 0.269531 -20.875 -2.007812 -11.707031 5.621094 -8.832031 C 12.175781 -6.289062 18.195312 -13.582031 21.675781 -18.128906 C 22.945312 -19.734375 20.738281 -22.144531 19.335938 -20.472656 Z M 11.507812 -26.023438 C 12.109375 -25.15625 10.636719 -23.347656 10.101562 -22.8125 C 8.695312 -21.339844 6.824219 -20.671875 4.882812 -20.339844 C 4.882812 -20.472656 4.949219 -20.605469 5.019531 -20.738281 C 5.554688 -21.945312 9.835938 -28.769531 11.507812 -26.023438 Z M 11.507812 -26.023438 "/></g></g></g></svg>